<svg xmlns="http://www.w3.org/2000/svg" viewBox="0 0 640 460" width="640" height="460" role="img" aria-label="Próteses Dentárias">
  <defs>
    <linearGradient id="g" x1="0" y1="0" x2="1" y2="1">
      <stop offset="0" stop-color="#1d4650"/><stop offset="1" stop-color="#397880"/>
    </linearGradient>
    <radialGradient id="r" cx="0.75" cy="0.2" r="0.9">
      <stop offset="0" stop-color="#c9a86a" stop-opacity="0.35"/><stop offset="1" stop-color="#c9a86a" stop-opacity="0"/>
    </radialGradient>
    <pattern id="dots" width="26" height="26" patternUnits="userSpaceOnUse">
      <circle cx="1.5" cy="1.5" r="1.5" fill="#ffffff" opacity="0.06"/>
    </pattern>
  </defs>
  <rect width="640" height="460" fill="url(#g)"/>
  <rect width="640" height="460" fill="url(#dots)"/>
  <rect width="640" height="460" fill="url(#r)"/>
  <circle cx="524" cy="368" r="184" fill="#ffffff" opacity="0.05"/>
  <g transform="translate(320 193)" fill="none" stroke="#c9a86a" stroke-width="3.2" stroke-linecap="round" stroke-linejoin="round" opacity="0.9">
    <g transform="translate(-30 -30) scale(2.5)"><path d="M9 2c-2.8 0-5 2.2-5 5 0 1.2.3 2.5.6 3.6.6 2 1 4 1.2 6 .1 1.3.3 2.6.8 3.8.3.7.9 1.6 1.7 1.6.9 0 1.2-1 1.4-1.8.3-1.4.6-2.9.8-4.3.1-.5.5-.9 1-.9s.9.4 1 .9c.2 1.4.5 2.9.8 4.3.2.8.5 1.8 1.4 1.8.8 0 1.4-.9 1.7-1.6.5-1.2.7-2.5.8-3.8.2-2 .6-4 1.2-6C19.7 9.5 20 8.2 20 7c0-2.8-2.2-5-5-5-1.3 0-2.4.5-3 1-.6-.5-1.7-1-3-1z"/></g>
  </g>
  <text x="320" y="368" text-anchor="middle" font-family="Georgia, serif" font-size="32" fill="#ffffff" opacity="0.92" font-style="italic">Próteses Dentárias</text>
</svg>
